<svg xmlns="http://www.w3.org/2000/svg" width="71.848" height="18.2" viewBox="0 0 71.848 18.2">
  <path id="패스_57" data-name="패스 57" d="M2.044-17.64H5.46v14.9h7.252V0H2.044ZM22.4-17.92a9.453,9.453,0,0,1,3.416.6,7.46,7.46,0,0,1,2.7,1.764A8.2,8.2,0,0,1,30.3-12.7a10.95,10.95,0,0,1,.644,3.906,10.459,10.459,0,0,1-.658,3.836,8.175,8.175,0,0,1-1.82,2.842A7.871,7.871,0,0,1,25.718-.336a9.372,9.372,0,0,1-3.43.616,9.654,9.654,0,0,1-3.416-.588,7.4,7.4,0,0,1-2.7-1.736,8.052,8.052,0,0,1-1.778-2.842,10.95,10.95,0,0,1-.644-3.906,10.571,10.571,0,0,1,.658-3.85,8.3,8.3,0,0,1,1.82-2.87A7.775,7.775,0,0,1,18.97-17.3,9.372,9.372,0,0,1,22.4-17.92ZM17.388-8.792a9.263,9.263,0,0,0,.392,2.856,5.771,5.771,0,0,0,1.078,2,4.37,4.37,0,0,0,1.6,1.19,4.866,4.866,0,0,0,1.946.392,4.767,4.767,0,0,0,1.932-.392,4.159,4.159,0,0,0,1.554-1.19,5.876,5.876,0,0,0,1.036-2A9.582,9.582,0,0,0,27.3-8.792a9.644,9.644,0,0,0-.392-2.912,5.745,5.745,0,0,0-1.078-2.03,4.23,4.23,0,0,0-1.6-1.176,5.022,5.022,0,0,0-1.946-.378,4.626,4.626,0,0,0-1.932.406,4.3,4.3,0,0,0-1.554,1.2,5.852,5.852,0,0,0-1.036,2.03A9.757,9.757,0,0,0,17.388-8.792ZM42.364-17.92a14.86,14.86,0,0,1,2.87.252,9.452,9.452,0,0,1,2.31.756L46.816-14.5A8.436,8.436,0,0,0,44.8-15.19a10.544,10.544,0,0,0-2.1-.21,6.748,6.748,0,0,0-2.226.364,4.813,4.813,0,0,0-1.848,1.162,5.587,5.587,0,0,0-1.26,2.044A8.779,8.779,0,0,0,36.9-8.792a7.332,7.332,0,0,0,1.414,4.844,4.993,4.993,0,0,0,4.046,1.68,7.259,7.259,0,0,0,2.576-.364V-7H41.888V-9.576h6.3V-.784a13.459,13.459,0,0,1-2.548.77A16.357,16.357,0,0,1,42.364.28a10.65,10.65,0,0,1-3.57-.588,8.2,8.2,0,0,1-2.9-1.736,8,8,0,0,1-1.932-2.842,10.163,10.163,0,0,1-.7-3.906,10.27,10.27,0,0,1,.7-3.92,8.2,8.2,0,0,1,1.918-2.87,7.958,7.958,0,0,1,2.884-1.75A10.736,10.736,0,0,1,42.364-17.92Zm12.768.28V0H51.716V-17.64Zm4.06,0h3.08l6.72,9.912q.56.84,1.036,1.666T70.784-4.7h.056q-.168-1.932-.168-3.878V-17.64h3.22V0h-3.08L64.4-9.38q-.644-.952-1.218-1.988t-.882-1.68h-.056q.14,2.072.154,4.018t.014,3.962V0h-3.22Z" transform="translate(-2.044 17.92)" fill="#373737"/>
</svg>
