<svg xmlns="http://www.w3.org/2000/svg" width="140.696" height="35.64" viewBox="0 0 140.696 35.64">
  <path id="패스_58" data-name="패스 58" d="M2.044-17.372H8.733V11.8h14.2v5.373H2.044Zm39.862-.548A18.511,18.511,0,0,1,48.6-16.741a14.609,14.609,0,0,1,5.291,3.454,16.054,16.054,0,0,1,3.482,5.593A21.442,21.442,0,0,1,58.629-.045a20.481,20.481,0,0,1-1.289,7.512,16.008,16.008,0,0,1-3.564,5.565A15.412,15.412,0,0,1,48.4,16.514a18.352,18.352,0,0,1-6.717,1.206A18.9,18.9,0,0,1,35,16.569a14.482,14.482,0,0,1-5.291-3.4A15.767,15.767,0,0,1,26.224,7.6,21.442,21.442,0,0,1,24.963-.045a20.7,20.7,0,0,1,1.289-7.539,16.247,16.247,0,0,1,3.564-5.62,15.226,15.226,0,0,1,5.373-3.509A18.352,18.352,0,0,1,41.906-17.92ZM32.091-.045a18.139,18.139,0,0,0,.768,5.593,11.3,11.3,0,0,0,2.111,3.92A8.558,8.558,0,0,0,38.1,11.8a9.529,9.529,0,0,0,3.811.768,9.334,9.334,0,0,0,3.783-.768,8.144,8.144,0,0,0,3.043-2.33,11.507,11.507,0,0,0,2.029-3.92A18.765,18.765,0,0,0,51.5-.045a18.884,18.884,0,0,0-.768-5.7,11.249,11.249,0,0,0-2.111-3.975,8.283,8.283,0,0,0-3.125-2.3,9.834,9.834,0,0,0-3.811-.74,9.058,9.058,0,0,0-3.783.8A8.414,8.414,0,0,0,34.86-9.613a11.459,11.459,0,0,0-2.029,3.975A19.107,19.107,0,0,0,32.091-.045ZM81-17.92a29.1,29.1,0,0,1,5.62.493,18.509,18.509,0,0,1,4.524,1.48l-1.426,4.715a16.519,16.519,0,0,0-3.948-1.343,20.648,20.648,0,0,0-4.112-.411,13.214,13.214,0,0,0-4.359.713A9.426,9.426,0,0,0,73.68-10a10.941,10.941,0,0,0-2.467,4,17.192,17.192,0,0,0-.9,5.949q0,6.2,2.769,9.486T81,12.73a14.215,14.215,0,0,0,5.044-.713V3.464H80.068V-1.58H92.405V15.636a26.356,26.356,0,0,1-4.99,1.508A32.031,32.031,0,0,1,81,17.72a20.855,20.855,0,0,1-6.991-1.151,16.055,16.055,0,0,1-5.675-3.4A15.656,15.656,0,0,1,64.551,7.6,19.9,19.9,0,0,1,63.18-.045a20.111,20.111,0,0,1,1.371-7.676,16.064,16.064,0,0,1,3.756-5.62,15.583,15.583,0,0,1,5.648-3.427A21.024,21.024,0,0,1,81-17.92Zm25,.548V17.172H99.314V-17.372Zm7.95,0h6.031l13.159,19.41q1.1,1.645,2.029,3.262t1.48,2.659h.11q-.329-3.783-.329-7.594V-17.372h6.306V17.172h-6.031L124.152-1.2q-1.261-1.864-2.385-3.893t-1.727-3.29h-.11q.274,4.057.3,7.868t.027,7.759v9.924h-6.306Z" transform="translate(-2.044 17.92)" fill="#373737"/>
</svg>
